<svg width="102" height="24" viewBox="0 0 102 24" fill="none" xmlns="http://www.w3.org/2000/svg">
<path d="M33.0748 18.7826L26.728 11.7975L32.9363 5.40308H35.8071L28.9588 12.3542V11.1563L33.6281 16.2015L36.0143 18.7826H33.0748ZM47.981 5.40308H45.7328V18.7659H47.981V5.40308Z" fill="black"/>
<path d="M54.57 5.40308H47.2725V7.41073H54.57V5.40308ZM54.2412 11.0384H50.1258V13.046H54.2412V11.0384Z" fill="black"/>
<path d="M57.1982 18.7826V9.33386H59.4465V18.7659H57.1982V18.7826ZM57.1982 7.41073V5.40308H59.4465V7.41073H57.1982Z" fill="#459EFF"/>
<path d="M76.9991 7.41077V5.40312H84.5735V7.41077H76.9991ZM76.9991 12.9109V10.9878H84.0028V12.9109H76.9991ZM76.9991 18.7826V16.7749H84.6597V18.7826H76.9991ZM74.4919 9.45234C74.1488 8.65478 73.6491 7.93218 73.0216 7.32625C72.384 6.71662 71.6322 6.23532 70.8083 5.90921C69.9611 5.57164 69.0442 5.40312 68.0416 5.40312H62.8364V14.2273H65.0841V7.41077H67.9893C68.9231 7.41077 69.736 7.61321 70.4452 8.00138C71.1539 8.38955 71.7073 8.94573 72.1227 9.63807C72.5201 10.3466 72.7278 11.1396 72.7278 12.0673C72.7278 12.9955 72.5201 13.8224 72.1227 14.5142C71.7247 15.2228 71.1714 15.7795 70.4621 16.1676C69.7534 16.5553 68.9231 16.7577 67.9893 16.7577H62.8364V18.7659H68.0585C69.0442 18.7659 69.9437 18.5969 70.7909 18.2598C71.6386 17.9223 72.3816 17.4496 73.0042 16.8422C73.6316 16.2363 74.1314 15.5137 74.4745 14.7162C74.8307 13.8835 75.013 12.9884 75.0104 12.0845C75.0104 11.1396 74.8381 10.2621 74.4919 9.45234ZM88.2048 11.7302C88.5854 12.0172 89.0177 12.2363 89.4849 12.4216C89.9515 12.6073 90.4187 12.7763 90.8679 12.9109C91.3351 13.0628 91.7505 13.2146 92.148 13.4003C92.5285 13.5861 92.8392 13.8224 93.0818 14.0922C93.3239 14.3791 93.4275 14.7334 93.4275 15.1889C93.4275 15.4586 93.3757 15.7116 93.2546 15.9141H95.6064C95.6625 15.6306 95.6913 15.3425 95.6926 15.0537C95.6926 14.3452 95.5716 13.7546 95.347 13.2824C95.1049 12.8097 94.7936 12.4216 94.4131 12.1346C94.0326 11.8315 93.6003 11.5951 93.1336 11.3927C92.6664 11.2069 92.1998 11.0212 91.75 10.8694C91.3163 10.7254 90.8894 10.5622 90.4705 10.3805C90.124 10.229 89.8077 10.0175 89.5367 9.75599C89.2946 9.50294 89.1905 9.18208 89.1905 8.77721C89.1905 8.28834 89.3807 7.91686 89.7613 7.64712C90.1418 7.37686 90.6777 7.24225 91.3521 7.24225C91.9059 7.24225 92.39 7.34347 92.8049 7.5626C93.2372 7.76503 93.6346 8.1026 94.0326 8.52416L95.5547 7.03981C95.1049 6.49981 94.5347 6.06103 93.8254 5.72347C93.1162 5.3859 92.3033 5.20068 91.4044 5.20068C90.5741 5.20068 89.8136 5.35199 89.1387 5.63894C88.4643 5.9259 87.9284 6.34799 87.5305 6.90468C87.133 7.46138 86.9254 8.13599 86.9254 8.91234C86.9254 9.60416 87.0464 10.1609 87.271 10.6163C87.4795 11.0611 87.8012 11.4449 88.2048 11.7302ZM18.3243 11.7302C18.7048 12.0172 19.1371 12.2363 19.6038 12.4216C20.0704 12.6073 20.5376 12.7763 20.9874 12.9109C21.454 13.0628 21.8689 13.2146 22.2669 13.4003C22.6474 13.5861 22.9587 13.8224 23.2007 14.0922C23.4428 14.3791 23.5464 14.7334 23.5464 15.1889C23.5464 15.4586 23.4946 15.7116 23.3735 15.9141H25.691C25.747 15.6306 25.7759 15.3425 25.7771 15.0537C25.7771 14.3452 25.6561 13.7546 25.4315 13.2824C25.1895 12.8097 24.8782 12.4216 24.4977 12.1346C24.1171 11.8315 23.6848 11.5951 23.2182 11.3927C22.751 11.2069 22.2843 11.0212 21.8346 10.8694C21.4009 10.7254 20.974 10.5622 20.5551 10.3805C20.2085 10.229 19.8923 10.0175 19.6212 9.75599C19.3792 9.50294 19.275 9.18208 19.275 8.77721C19.275 8.28834 19.4653 7.91686 19.8458 7.64712C20.2263 7.37686 20.7622 7.24225 21.4366 7.24225C21.9899 7.24225 22.4746 7.34347 22.8894 7.5626C23.3217 7.76503 23.7192 8.1026 24.1171 8.52416L25.6392 7.03981C25.1895 6.49981 24.6192 6.06103 23.91 5.72347C23.2007 5.3859 22.3879 5.20068 21.4889 5.20068C20.6761 5.21738 19.9325 5.3692 19.2407 5.65616C18.5663 5.94312 18.0304 6.36468 17.6325 6.92138C17.2345 7.47807 17.0273 8.15268 17.0273 8.92903C17.0273 9.62086 17.1484 10.1776 17.373 10.6336C17.5985 11.0677 17.9244 11.4434 18.3243 11.7302Z" fill="black"/>
<path d="M12.3752 5.40308H10.8013L7.06592 14.2946H9.38338L11.5624 8.9629L13.7239 14.2946L14.5019 16.201L15.5398 18.7826H17.9604L12.3752 5.40308Z" fill="#459EFF"/>
<path d="M15.5401 15.2901H6.58209L7.39492 13.4849H15.6437L15.5401 15.2901ZM7.70567 18.7826L8.36313 17.1459H5.95952L5.28516 18.7826H7.70567Z" fill="#459EFF"/>
</svg>
